PathFileType  4	(X/Y/Z) C:\Users\antoi\Documents\MyRepositories\mobilecap\ResultsAnalysis
DataRate	CameraRate	NumFrames	NumMarkers	Units	OrigDataRate	OrigDataStartFrame	OrigNumFrames
100.0	100.0	4	51	mm	100.0	168	223
Frame#	Time	r_knee			r_shank_antsup			r_ankle			r_calc			r_5meta			r_toe			L_knee			L_shank_antsup			L_ankle			L_calc			L_5meta			L_toe			r_sh2			r_sh3			r_sh4			L_sh2			L_sh3			r_thigh1			r_thigh2			r_thigh3			r_thigh4			r_thigh5			L_thigh1			L_thigh2			L_thigh3			L_thigh4			r.ASIS			r.PSIS			L.ASIS			L.PSIS			C7			R_Shoulder			L_Shoulder			R_Sternum			L_Sternum			R_humerus			R_elbow_med			R_elbow_lat			R_forearm			R_wrist_radius			R_wrist_ulna			L_humerus			L_elbow_med			L_elbow_lat			L_forearm			L_wrist_radius			L_wrist_ulna			R_HJC			L_HJC			R_HJC_reg			L_HJC_reg			
		X1	Y1	Z1	X2	Y2	Z2	X3	Y3	Z3	X4	Y4	Z4	X5	Y5	Z5	X6	Y6	Z6	X7	Y7	Z7	X8	Y8	Z8	X9	Y9	Z9	X10	Y10	Z10	X11	Y11	Z11	X12	Y12	Z12	X13	Y13	Z13	X14	Y14	Z14	X15	Y15	Z15	X16	Y16	Z16	X17	Y17	Z17	X18	Y18	Z18	X19	Y19	Z19	X20	Y20	Z20	X21	Y21	Z21	X22	Y22	Z22	X23	Y23	Z23	X24	Y24	Z24	X25	Y25	Z25	X26	Y26	Z26	X27	Y27	Z27	X28	Y28	Z28	X29	Y29	Z29	X30	Y30	Z30	X31	Y31	Z31	X32	Y32	Z32	X33	Y33	Z33	X34	Y34	Z34	X35	Y35	Z35	X36	Y36	Z36	X37	Y37	Z37	X38	Y38	Z38	X39	Y39	Z39	X40	Y40	Z40	X41	Y41	Z41	X42	Y42	Z42	X43	Y43	Z43	X44	Y44	Z44	X45	Y45	Z45	X46	Y46	Z46	X47	Y47	Z47	X48	Y48	Z48	X49	Y49	Z49	X50	Y50	Z50	X51	Y51	Z51	

168	1.67000000	-194.22086	535.70359	-405.99407	-155.68893	463.50335	-415.39653	-274.27713	140.85122	-421.39756	-350.00577	140.65649	-458.78149	-199.64519	51.89084	-396.40645	-143.73118	60.93147	-450.73475	-210.52473	539.90791	-771.83157	-192.72079	444.18503	-787.83181	-331.29578	161.49913	-787.09856	-403.82992	165.53844	-738.54551	-274.10248	55.32443	-825.72584	-220.69608	58.26581	-776.65508	-196.97826	356.48935	-394.11388	-231.06627	487.94986	-393.25305	-267.27938	381.74198	-391.44317	-275.94660	477.40881	-785.33026	-309.41396	359.98816	-798.84313	-196.54664	859.37453	-385.21813	-180.22173	748.03105	-384.72924	-235.68987	716.18972	-367.19101	-308.45338	840.10077	-394.07618	-286.38118	724.97650	-390.02614	-222.26613	815.38518	-792.88526	-189.87690	680.65090	-785.88055	-324.66990	788.71884	-739.58588	-288.43590	653.15894	-750.80060	-181.31264	1000.34907	-444.85744	-358.03896	1064.11864	-537.88917	-167.50149	976.87774	-694.79942	-357.39251	1066.16259	-640.40433	-219.40673	1462.40175	-626.75301	-147.27662	1442.83605	-448.21570	-112.96869	1419.68864	-776.88948	-82.83668	1407.59600	-579.89564	-74.36206	1401.52309	-620.22494	-200.91133	1361.28656	-347.25455	-329.93774	1175.55548	-313.23849	-311.32199	1226.42369	-250.89550	-177.18273	1231.96882	-287.80187	-62.94630	1228.65229	-334.23916	-47.46964	1203.62752	-313.16654	-119.41511	1333.85590	-859.66991	-249.02438	1135.98941	-909.83845	-198.94013	1176.76875	-965.66380	-118.80793	1170.52850	-890.93434	-15.93964	1140.17821	-794.52807	0.25399	1117.93478	-816.12648	-270.57628	933.37901	-470.47151	-258.93957	920.27746	-676.19840	-258.00313	924.38934	-481.34637	-256.95142	927.69324	-647.24786	
169	1.68000000	-211.46528	552.76683	-409.86025	-171.51340	483.46035	-417.96834	-265.85093	151.27951	-416.35908	-337.71758	157.97939	-454.68216	-196.25676	54.29176	-395.07761	-139.47285	60.49920	-448.38079	-224.84585	561.28289	-772.13805	-202.78848	466.71583	-788.52252	-320.25772	173.66383	-792.94150	-387.97326	184.62748	-742.24275	-270.81069	58.41793	-826.51475	-215.72446	59.60205	-779.52706	-205.27128	374.43536	-393.79123	-248.42927	502.84582	-396.85731	-277.05293	394.74641	-393.19015	-288.06338	494.27130	-785.26945	-313.41038	375.24365	-801.30687	-193.09042	875.50813	-384.78506	-183.72211	763.51066	-386.21798	-241.17723	734.59946	-369.23884	-306.02994	863.39023	-393.67541	-291.25484	746.93620	-391.75912	-222.54079	837.29871	-792.49617	-196.65977	701.28949	-786.19117	-326.10630	815.23787	-738.94919	-296.24073	678.37909	-750.30795	-173.15674	1025.73921	-444.58400	-350.72868	1085.32981	-535.83325	-161.28480	1002.01350	-693.53183	-351.05285	1088.13512	-637.61215	-222.08472	1486.56481	-626.86265	-152.56067	1467.33162	-449.25102	-117.47838	1443.58635	-776.19414	-85.88634	1433.14405	-578.82420	-76.01116	1426.91321	-621.24583	-204.82890	1385.65731	-348.49706	-338.16097	1201.59937	-317.89719	-316.47419	1249.22493	-253.90944	-182.61186	1247.84629	-288.92715	-67.09414	1238.56314	-333.57436	-53.43688	1212.81488	-312.31716	-123.12584	1358.38766	-858.96277	-256.14064	1161.00238	-906.64275	-205.10775	1199.86135	-963.49951	-125.51950	1191.32738	-888.56612	-22.43917	1158.37522	-792.59368	-6.76867	1136.09293	-814.55175	-260.96111	956.86780	-468.74843	-250.95716	943.73399	-674.55632	-248.04051	947.16920	-480.67931	-248.56026	951.72049	-645.85759	
170	1.69000000	-229.23239	571.16911	-413.96402	-187.51563	505.66380	-420.66003	-255.05154	164.84417	-410.93205	-322.90727	178.19964	-450.13941	-192.35694	58.48350	-394.06103	-133.72902	63.36824	-444.46473	-238.47289	583.51229	-771.59029	-211.11060	489.94351	-788.82941	-309.24802	187.94274	-798.45389	-371.05717	204.92378	-743.93756	-268.76822	64.36474	-826.72809	-210.69561	65.26709	-784.59489	-212.47757	394.52228	-393.96313	-265.88432	518.68871	-400.95550	-285.38946	409.09429	-394.79402	-297.98819	511.37052	-784.75920	-315.27349	391.08645	-804.02901	-189.38796	891.34019	-385.08015	-187.36363	779.32032	-388.35645	-246.24811	753.38201	-371.40253	-303.18708	886.50032	-392.65757	-295.67562	769.34804	-393.33010	-222.11060	858.74272	-791.85133	-202.57271	721.94291	-785.63203	-326.89432	841.64850	-738.70331	-303.06603	703.61365	-749.20507	-165.86238	1051.16576	-444.48397	-343.79516	1106.43190	-533.70199	-155.82362	1027.61506	-692.91200	-345.41782	1110.08822	-634.42143	-224.23728	1509.85923	-626.90336	-157.34595	1489.97031	-450.44945	-121.94381	1465.81932	-775.19317	-88.71967	1457.15229	-578.05785	-79.30568	1450.17757	-621.15765	-208.14618	1407.96058	-350.36310	-345.02594	1225.59451	-323.14767	-321.18546	1269.28102	-257.49915	-187.61318	1260.83658	-289.94206	-70.94327	1245.81127	-332.20124	-59.18346	1219.09024	-311.15489	-126.67110	1381.51122	-857.95734	-262.49585	1184.39337	-903.30044	-210.80345	1220.71512	-961.04635	-131.01799	1209.83341	-886.24943	-28.51115	1174.63683	-790.22651	-13.32029	1152.49619	-812.85500	-251.72575	980.25575	-467.34242	-243.62891	967.52969	-673.26079	-238.44419	969.95721	-480.18593	-241.11153	975.94336	-644.88647	
171	1.70000000	-245.14201	590.53428	-416.73740	-200.96779	527.60001	-422.16193	-246.61211	180.78232	-407.26861	-311.38291	197.19276	-447.94235	-188.03544	68.11947	-393.03934	-126.99475	74.41310	-439.17097	-249.31819	605.56562	-770.64980	-216.71826	512.30199	-789.32786	-302.59101	204.48991	-801.18690	-358.78400	223.81632	-741.84042	-267.46916	77.02366	-828.35554	-205.90977	78.88692	-792.42011	-218.09711	415.22198	-393.54431	-280.42370	535.15332	-403.62627	-291.21647	423.76801	-394.76881	-304.65065	528.85367	-784.30152	-315.58463	408.17154	-806.04414	-185.81577	906.08697	-386.09813	-191.00341	794.55801	-391.38352	-250.70999	771.80425	-373.47762	-300.05008	908.47590	-390.67691	-299.60493	791.23847	-394.32208	-221.35515	878.84162	-791.35892	-207.29074	741.69305	-784.25564	-326.97829	866.62064	-738.84024	-308.54029	727.65476	-747.38568	-159.96286	1075.76051	-444.83984	-337.55546	1127.11754	-531.82327	-151.20310	1053.42591	-692.53882	-341.01609	1131.66366	-631.64598	-225.98222	1531.62092	-626.91621	-161.45640	1510.33404	-451.57012	-126.28704	1486.06767	-774.17977	-91.11036	1479.14765	-577.80800	-81.44309	1472.47250	-623.73171	-210.66441	1427.83670	-352.55022	-350.08493	1246.76611	-328.43984	-325.39860	1286.56099	-261.41431	-192.02310	1270.90615	-290.61336	-74.53643	1250.36356	-330.27895	-64.73943	1222.65324	-309.68234	-129.93312	1402.81840	-856.89630	-267.92907	1205.42066	-900.00171	-215.91139	1239.16797	-958.63997	-135.95771	1226.05194	-884.20996	-34.36007	1188.86767	-787.40277	-19.30324	1167.04179	-810.69466	-243.58542	1002.93652	-466.65272	-237.15587	991.36290	-672.70247	-229.61815	992.77410	-479.83697	-235.31382	1000.24247	-643.80299	
